<?xml version="1.0" encoding="utf-8"?>
<!-- Generator: Adobe Illustrator 24.0.1, SVG Export Plug-In . SVG Version: 6.00 Build 0)  -->
<svg version="1.1" id="Layer_1" xmlns="http://www.w3.org/2000/svg" xmlns:xlink="http://www.w3.org/1999/xlink" x="0px" y="0px"
	 viewBox="0 0 23.8 23.8" style="enable-background:new 0 0 23.8 23.8;" xml:space="preserve">
<style type="text/css">
	.st0{fill:#000000;}
</style>
<g id="close" transform="translate(-1737 -94)">
	<path id="Rectangle_1" class="st0" d="M1737.6,114.4l19.8-19.8c0.8-0.8,2-0.8,2.8,0l0,0c0.8,0.8,0.8,2,0,2.8l-19.8,19.8
		c-0.8,0.8-2,0.8-2.8,0l0,0C1736.8,116.4,1736.8,115.2,1737.6,114.4z"/>
	<path id="Rectangle_2" class="st0" d="M1757.4,117.2l-19.8-19.8c-0.8-0.8-0.8-2,0-2.8l0,0c0.8-0.8,2-0.8,2.8,0l19.8,19.8
		c0.8,0.8,0.8,2,0,2.8l0,0C1759.4,118,1758.2,118,1757.4,117.2z"/>
</g>
</svg>
